<svg xmlns="http://www.w3.org/2000/svg" viewBox="0 0 1600 1000" role="img" aria-labelledby="title desc">
  <title id="title">PIRATES Sport Management</title>
  <desc id="desc">Premium PIRATES basketball club graphic placeholder.</desc>
  <defs>
    <radialGradient id="glow" cx="52%" cy="36%" r="58%">
      <stop offset="0" stop-color="#10296d"/>
      <stop offset="0.56" stop-color="#07153b"/>
      <stop offset="1" stop-color="#020816"/>
    </radialGradient>
    <linearGradient id="gold" x1="0" x2="1">
      <stop offset="0" stop-color="#f6b620"/>
      <stop offset="1" stop-color="#d59618"/>
    </linearGradient>
    <filter id="shadow" x="-20%" y="-20%" width="140%" height="140%">
      <feDropShadow dx="0" dy="24" stdDeviation="22" flood-color="#000" flood-opacity="0.45"/>
    </filter>
    <pattern id="grain" width="6" height="6" patternUnits="userSpaceOnUse">
      <path d="M1 1h1v1H1zM4 3h1v1H4z" fill="#fff" opacity="0.045"/>
    </pattern>
  </defs>
  <rect width="1600" height="1000" fill="url(#glow)"/>
  <rect width="1600" height="1000" fill="url(#grain)"/>
  <path d="M160 92h1220q60 0 60-60" fill="none" stroke="#df3044" stroke-width="4" opacity="0.55"/>
  <path d="M150 908h1250" fill="none" stroke="#df3044" stroke-width="4" opacity="0.45"/>
  <g opacity="0.08" fill="none" stroke="#fff" stroke-width="7">
    <path d="M92 520h190v-98H168v-86h186v268H92z"/>
    <path d="M424 336h112v268H424z"/>
    <path d="M620 604V336h238v102H734v48h116v118z"/>
    <path d="M920 604V336h244v102h-130v48h118v118z"/>
    <path d="M1228 604V336h272v86h-158v40h144v76h-144v66z"/>
  </g>
  <g filter="url(#shadow)" transform="translate(800 385)">
    <circle cx="0" cy="-72" r="178" fill="#fff" stroke="#d92e3e" stroke-width="8"/>
    <circle cx="0" cy="-72" r="130" fill="#08113f"/>
    <path d="M-99 7q99-170 198 0" fill="#fff"/>
    <path d="M-76 20q76-128 152 0" fill="url(#gold)"/>
    <path d="M0-238v360M-126-128 126 52M126-128-126 52M-172-42h344" stroke="#08113f" stroke-width="16" stroke-linecap="round"/>
    <path d="M-252 6h504l-42 94H-210z" fill="#08113f" stroke="#d92e3e" stroke-width="8"/>
    <text x="0" y="79" text-anchor="middle" font-family="Georgia, 'Times New Roman', serif" font-size="112" font-weight="800" fill="#f7f2e8" letter-spacing="8">PIRATES</text>
    <path d="M-172 96 0 240 172 96 118 190 0 288-118 190z" fill="#08113f" stroke="#d92e3e" stroke-width="8"/>
    <path d="M-92 136 0 214 92 136 50 194 0 236-50 194z" fill="url(#gold)"/>
  </g>
  <text x="800" y="760" text-anchor="middle" font-family="Georgia, 'Times New Roman', serif" font-size="86" fill="#fff" letter-spacing="8">PIRATES</text>
  <text x="800" y="855" text-anchor="middle" font-family="Georgia, 'Times New Roman', serif" font-size="64" fill="#fff" letter-spacing="9">СПОРТ МЕНЕЖМЕНТ ХХК</text>
</svg>
