<?xml version="1.0" encoding="utf-8"?>
<!-- Generator: Adobe Illustrator 19.0.0, SVG Export Plug-In . SVG Version: 6.00 Build 0)  -->
<svg version="1.1" id="Layer_1" xmlns="http://www.w3.org/2000/svg" xmlns:xlink="http://www.w3.org/1999/xlink" x="0px" y="0px"
	 viewBox="0 0 500 500" style="enable-background:new 0 0 500 500;" xml:space="preserve">
<style type="text/css">
	.st0{fill:#D60027;}
</style>
<g id="XMLID_1_">
	<polygon id="XMLID_3_" class="st0" points="67.6,348.4 332.8,348.4 357.7,212.1 420.5,212.1 342.5,151.6 193.8,212.1 276,212.1 	
		"/>
	<path id="XMLID_9_" d="M91.6,212.1h31.9l-10,53.5h51l9.9-53.5h35.9l-24.1,136.3h-35.9l9.4-52.9h-50.9l-9.4,52.9H67.5L91.6,212.1z
		 M241.6,212.1h35.1l-18.6,109.7h45.3l-4.6,26.6h-81.3L241.6,212.1z M381.6,266.5c5.7,0,10.1-3.2,13.3-6.4c3.2-3.2,4-5.9,4-11.4
		c0-3.6-1.1-6.3-3.4-8.2c-2.2-1.9-5.4-2.8-9.6-2.8h-12.1l-4.3,28.8H381.6z M377.8,324.5c7.3,0,12.9-1.9,16.8-5.8
		c3.9-3.8,5.9-9.3,5.9-16.5c0-4.6-2.2-5.5-4.9-7.7c-2.7-2.2-6.8-3.3-12.4-3.3h-18.8l-5.5,33.3H377.8z M415.5,275.5
		c5.4,1.7,9.6,4.8,12.5,9.4c3,4.5,4.4,10.1,4.4,16.8c0,14.7-5,26.1-14.9,34.4c-9.9,8.2-23.8,12.4-41.7,12.4h-54.5l24.1-136.3h43.7
		c14.7,0,25.5,2.4,32.6,7.1c7,4.7,10.5,12.1,10.5,22c0,8.3-2.1,15.7-6.2,22c-4.1,6.3-9.5,10.4-16.2,12.3H415.5z"/>
</g>
</svg>
