<?xml version="1.0" encoding="UTF-8" standalone="no"?>
<!-- Created with Inkscape (http://www.inkscape.org/) -->

<svg
   xmlns:dc="http://purl.org/dc/elements/1.1/"
   xmlns:cc="http://creativecommons.org/ns#"
   xmlns:rdf="http://www.w3.org/1999/02/22-rdf-syntax-ns#"
   xmlns:svg="http://www.w3.org/2000/svg"
   xmlns="http://www.w3.org/2000/svg"
   xmlns:sodipodi="http://sodipodi.sourceforge.net/DTD/sodipodi-0.dtd"
   xmlns:inkscape="http://www.inkscape.org/namespaces/inkscape"
   width="2212.4399"
   height="510"
   id="svg3377"
   version="1.1"
   inkscape:version="0.48.1 "
   sodipodi:docname="Neues Dokument 3">
  <defs
     id="defs3379" />
  <sodipodi:namedview
     id="base"
     pagecolor="#ffffff"
     bordercolor="#666666"
     borderopacity="1.0"
     inkscape:pageopacity="0.0"
     inkscape:pageshadow="2"
     inkscape:zoom="0.70376464"
     inkscape:cx="1106.22"
     inkscape:cy="255"
     inkscape:document-units="px"
     inkscape:current-layer="layer1"
     showgrid="false"
     fit-margin-top="0"
     fit-margin-left="0"
     fit-margin-right="0"
     fit-margin-bottom="0"
     inkscape:window-width="1680"
     inkscape:window-height="990"
     inkscape:window-x="-4"
     inkscape:window-y="-4"
     inkscape:window-maximized="1" />
  <metadata
     id="metadata3382">
    <rdf:RDF>
      <cc:Work
         rdf:about="">
        <dc:format>image/svg+xml</dc:format>
        <dc:type
           rdf:resource="http://purl.org/dc/dcmitype/StillImage" />
        <dc:title></dc:title>
      </cc:Work>
    </rdf:RDF>
  </metadata>
  <g
     inkscape:label="Ebene 1"
     inkscape:groupmode="layer"
     id="layer1"
     transform="translate(-78.017028,39.154199)">
    <g
       id="g106"
       transform="matrix(21.813775,0,0,-21.813775,435.91981,450.8292)">
      <path
         inkscape:connector-curvature="0"
         d="m 0,0 c 0,-0.15 -0.119,-0.3 -0.269,-0.3 l -5.775,0 c -0.149,0 -0.329,0.03 -0.418,0.21 l -3.053,5.835 -1.096,0 0,-5.595 c 0,-0.271 -0.209,-0.45 -0.509,-0.45 l -4.548,0 c -0.299,0 -0.51,0.179 -0.51,0.45 l 0,20.557 c 0,0.479 0.151,0.777 0.63,0.867 l 4.129,0.629 0.18,0 c 0.358,0 0.628,-0.149 0.628,-0.599 l 0,-12.238 1.096,0 3.381,5.776 c 0.12,0.239 0.27,0.268 0.42,0.268 l 0.149,0 5.146,-0.089 c 0.211,0 0.27,-0.179 0.27,-0.299 0,-0.059 -0.03,-0.09 -0.03,-0.121 L -4.908,7.839 -0.029,0.12 C 0,0.06 0,0.03 0,0"
         style="fill:#1965b6;fill-opacity:1;fill-rule:nonzero;stroke:none"
         id="path108" />
    </g>
    <g
       id="g110"
       transform="matrix(21.813775,0,0,-21.813775,727.07038,457.36024)">
      <path
         inkscape:connector-curvature="0"
         d="m 0,0 c -1.256,-0.269 -2.634,-0.389 -4.459,-0.389 -3.86,0 -7.511,0.599 -7.511,5.207 0,3.741 2.603,4.398 4.429,4.668 l 5.027,0.58 0,0.736 c 0,0.719 -0.12,1.138 -0.567,1.377 -0.36,0.209 -1.049,0.299 -1.887,0.299 -1.794,0 -4.189,-0.658 -4.788,-0.837 -0.089,-0.03 -0.148,-0.03 -0.238,-0.03 -0.18,0 -0.3,0.089 -0.33,0.269 l -0.539,2.394 c -0.03,0.06 -0.03,0.12 -0.03,0.179 0,0.298 0.18,0.419 0.39,0.509 0.539,0.209 3.47,1.137 6.852,1.137 2.065,0 3.591,-0.299 4.639,-0.898 1.466,-0.807 2.064,-2.125 2.064,-3.89 l 0,-8.14 C 3.052,0.807 2.005,0.479 0,0 M -2.423,7.242 -4.818,6.853 c -0.988,-0.15 -1.765,-0.39 -1.765,-1.976 0,-1.646 1.286,-1.915 2.184,-1.915 0.988,0 1.976,0.239 1.976,0.239 l 0,4.041 z"
         style="fill:#1965b6;fill-opacity:1;fill-rule:nonzero;stroke:none"
         id="path112" />
    </g>
    <g
       id="g114"
       transform="matrix(21.813775,0,0,-21.813775,1067.1494,194.94279)">
      <path
         inkscape:connector-curvature="0"
         d="m 0,0 c -1.646,0 -3.141,-0.211 -3.141,-0.211 l 0,-11.37 c 0,-0.271 -0.21,-0.45 -0.509,-0.45 l -4.638,0 c -0.3,0 -0.509,0.179 -0.509,0.45 l 0,13.345 c 0,1.078 1.047,1.376 2.933,1.737 1.466,0.298 3.441,0.508 5.326,0.508 l 0.538,0 c 0.45,0 0.629,-0.179 0.629,-0.687 l 0,-2.605 C 0.629,0.359 0.629,0 0,0"
         style="fill:#1965b6;fill-opacity:1;fill-rule:nonzero;stroke:none"
         id="path116" />
    </g>
    <g
       id="g118"
       transform="matrix(21.813775,0,0,-21.813775,1865.4812,305.31823)">
      <path
         inkscape:connector-curvature="0"
         d="m 0,0 c 0,-0.479 -0.119,-0.986 -0.867,-0.986 l -9.067,0 c 0,-1.048 0.419,-2.065 1.436,-2.422 0.629,-0.24 1.525,-0.36 2.692,-0.36 1.796,0 3.502,0.568 3.981,0.687 l 0.09,0 c 0.21,0 0.449,-0.208 0.539,-0.538 l 0.448,-1.915 c 0,-0.089 0.03,-0.149 0.03,-0.21 0,-0.298 -0.18,-0.509 -0.388,-0.568 -0.838,-0.359 -2.904,-1.047 -5.716,-1.047 -5.835,0 -8.678,1.915 -8.678,8.108 0,6.226 2.066,8.38 7.811,8.38 2.871,0 4.787,-0.569 5.954,-1.766 C -0.448,6.046 0,4.309 0,1.437 L 0,0 z m -5.445,2.663 c 0,0.538 -0.06,0.73 -0.121,1.149 -0.24,1.376 -0.88,1.825 -2.104,1.825 -1.615,0 -2.123,-0.599 -2.273,-1.646 -0.09,-0.598 -0.09,-0.999 -0.09,-1.806 l 4.557,0 c 0.031,0.149 0.031,0.329 0.031,0.478"
         style="fill:#1965b6;fill-opacity:1;fill-rule:nonzero;stroke:none"
         id="path120" />
    </g>
    <g
       id="g122"
       transform="matrix(21.813775,0,0,-21.813775,2285.4574,448.21818)">
      <path
         inkscape:connector-curvature="0"
         d="m 0,0 c 0,-0.18 -0.119,-0.42 -0.299,-0.42 l -5.056,0 c -0.211,0 -0.39,0.151 -0.48,0.33 l -3.321,4.997 -2.872,-4.967 c -0.12,-0.209 -0.27,-0.36 -0.51,-0.36 l -5.087,0 c -0.149,0 -0.269,0.24 -0.269,0.42 0,0.06 0,0.12 0.031,0.15 l 5.234,7.301 -4.606,7.091 c -0.03,0.06 -0.061,0.15 -0.061,0.209 0,0.271 0.271,0.54 0.39,0.54 l 4.697,0 c 0.3,0 0.479,-0.03 0.689,-0.389 l 2.844,-4.729 2.333,4.698 c 0.179,0.39 0.389,0.42 0.719,0.42 l 4.608,0 c 0.119,0 0.39,-0.269 0.39,-0.54 0,-0.059 0,-0.149 -0.061,-0.209 L -5.236,7.451 -0.029,0.15 C 0,0.12 0,0.06 0,0"
         style="fill:#1965b6;fill-opacity:1;fill-rule:nonzero;stroke:none"
         id="path124" />
    </g>
    <g
       id="g126"
       transform="matrix(21.813775,0,0,-21.813775,1332.4222,382.29258)">
      <path
         inkscape:connector-curvature="0"
         d="m 0,0 c 0,0 -0.779,-0.181 -1.466,-0.181 -2.005,0 -2.543,0.45 -2.543,4.818 0,4.191 0.478,4.34 2.303,4.34 C -1.077,8.977 0,8.828 0,8.828 L 0,0 z m 5.027,19.091 c -0.06,0 -0.118,-0.03 -0.179,-0.03 L 0.628,18.432 C 0.119,18.342 0,18.074 0,17.566 l 0,-5.362 c -0.572,0.152 -1.904,0.453 -3.471,0.453 -5.147,0 -6.254,-3.53 -6.254,-8.438 0,-6.524 2.365,-8.049 8.259,-8.049 1.646,0 3.769,0.209 5.387,0.718 1.586,0.509 1.704,1.616 1.704,2.364 l 0,19.241 c 0,0.419 -0.268,0.598 -0.598,0.598"
         style="fill:#1965b6;fill-opacity:1;fill-rule:nonzero;stroke:none"
         id="path128" />
    </g>
  </g>
</svg>
