<svg width="140" height="32" viewBox="0 0 140 32" fill="none" xmlns="http://www.w3.org/2000/svg">
<path fill-rule="evenodd" clip-rule="evenodd" d="M14.6795 11.0908C17.4213 11.0908 19.6441 13.2885 19.6441 15.9997C19.6441 18.7111 17.4213 20.909 14.6795 20.909C11.9376 20.909 9.71484 18.7111 9.71484 15.9997C9.71484 13.2885 11.9376 11.0908 14.6795 11.0908Z" fill="#F58534"/>
<path fill-rule="evenodd" clip-rule="evenodd" d="M14.6795 0C17.4213 0 19.6441 2.19791 19.6441 4.90889C19.6441 7.62006 17.4213 9.81817 14.6795 9.81817C11.9376 9.81817 9.71484 7.62006 9.71484 4.90889C9.71484 2.19772 11.9376 0 14.6795 0Z" fill="#F58534"/>
<path fill-rule="evenodd" clip-rule="evenodd" d="M0.666094 7.99958C2.03712 5.65182 5.07343 4.8474 7.44795 6.20288C9.82248 7.55837 10.6362 10.5609 9.26518 12.9087C7.89415 15.2568 4.85764 16.0614 2.48312 14.7055C0.108595 13.3501 -0.704931 10.3477 0.665894 7.99958H0.666094Z" fill="#F58534"/>
<path fill-rule="evenodd" clip-rule="evenodd" d="M0.665894 24C-0.704931 21.6516 0.108595 18.6493 2.48312 17.2938C4.85764 15.9381 7.89395 16.7427 9.26518 19.0907C10.636 21.4388 9.82228 24.4412 7.44795 25.7965C5.07343 27.1521 2.03712 26.3477 0.666093 24H0.665894Z" fill="#F58534"/>
<path fill-rule="evenodd" clip-rule="evenodd" d="M14.6795 32C11.9376 32 9.71484 29.8023 9.71484 27.0909C9.71484 24.3796 11.9376 22.1816 14.6795 22.1816C17.4213 22.1816 19.6441 24.3796 19.6441 27.0909C19.6441 29.8023 17.4213 32 14.6795 32Z" fill="#F58534"/>
<path fill-rule="evenodd" clip-rule="evenodd" d="M28.6929 24C27.322 26.3477 24.2855 27.1523 21.9108 25.7965C19.5363 24.441 18.7227 21.4386 20.0938 19.0907C21.4646 16.7427 24.5011 15.9381 26.8754 17.2938C29.2501 18.6493 30.0637 21.6516 28.6927 24H28.6929Z" fill="#F58534"/>
<path fill-rule="evenodd" clip-rule="evenodd" d="M28.6927 7.99958C30.0635 10.3477 29.25 13.3501 26.8754 14.7055C24.5009 16.0614 21.4646 15.2568 20.0938 12.9087C18.7227 10.5609 19.5363 7.55837 21.9108 6.20288C24.2855 4.8474 27.3218 5.65182 28.6929 7.99958H28.6927Z" fill="#F58534"/>
<path d="M59.6931 27.3808V14.8263C59.6931 13.6431 59.7317 12.345 59.8036 10.9269L59.8533 9.8745H59.6601C59.3184 11.6742 59.0535 12.9176 58.8716 13.6102L55.4573 27.3808H48.8997L45.3313 13.7739C45.232 13.4305 44.9782 12.1322 44.57 9.8745H44.377C44.526 13.452 44.603 15.6882 44.603 16.5827V27.3808H38.481V4.47532H48.9327L52.1149 16.9096C52.1922 17.1662 52.2915 17.6842 52.4182 18.4696C52.5395 19.2495 52.6168 19.8548 52.6498 20.2804H52.7491C52.865 19.3095 53.0524 18.1697 53.3118 16.8501L56.2847 4.47552H66.5763V27.381L59.6931 27.3808ZM92.3497 27.3808V14.8263C92.3497 13.6431 92.3885 12.345 92.4602 10.9269L92.5098 9.8745H92.3167C91.9746 11.6742 91.7099 12.9176 91.528 13.6102L88.1139 27.3808H81.556L77.9877 13.7739C77.8884 13.4305 77.6345 12.1322 77.2264 9.8745H77.0334C77.1823 13.452 77.2596 15.6882 77.2596 16.5827V27.3808H71.1375V4.47532H81.5893L84.7715 16.9096C84.8488 17.1662 84.9481 17.6842 85.0748 18.4696C85.1963 19.2495 85.2734 19.8548 85.3066 20.2804H85.4059C85.5216 19.3095 85.7092 18.1697 85.9684 16.8501L88.9412 4.47552H99.233V27.381L92.3497 27.3808ZM119.877 20.4437C119.877 21.965 119.464 23.2906 118.642 24.4195C117.82 25.5485 116.662 26.3885 115.178 26.9446C113.695 27.4954 111.908 27.7737 109.817 27.7737C107.396 27.7737 105.179 27.3699 103.166 26.5576V20.2804C104.136 20.9838 105.206 21.5565 106.381 21.9874C107.556 22.4181 108.648 22.6366 109.663 22.6366C110.424 22.6366 111.02 22.5 111.439 22.2275C111.858 21.9547 112.068 21.562 112.068 21.0387C112.068 20.6677 111.963 20.3352 111.753 20.0571C111.544 19.7734 111.224 19.5116 110.799 19.2661C110.374 19.0209 109.586 18.6826 108.427 18.257C104.699 16.8394 102.835 14.5486 102.835 11.3856C102.835 9.17142 103.684 7.39888 105.388 6.07368C107.087 4.74848 109.37 4.08301 112.238 4.08301C113.044 4.08301 113.788 4.11606 114.467 4.18118C115.145 4.24116 115.763 4.32291 116.32 4.41574C116.871 4.51372 117.649 4.69404 118.653 4.96086V10.791C116.7 9.74406 114.787 9.22032 112.9 9.22032C112.123 9.22032 111.499 9.36204 111.025 9.65123C110.551 9.94022 110.314 10.3329 110.314 10.8345C110.314 11.3092 110.507 11.7074 110.887 12.0235C111.268 12.3343 112.068 12.7434 113.286 13.245C115.686 14.1995 117.384 15.2523 118.383 16.3918C119.381 17.5262 119.877 18.8789 119.877 20.444V20.4437ZM123.252 27.381H139.852C139.103 25.6582 138.519 23.8494 138.116 21.9737H123.252V27.381ZM123.252 18.6317H137.605C137.521 17.7414 137.477 16.84 137.477 15.9281C137.477 15.0162 137.522 14.1149 137.605 13.2244H123.252V18.6317ZM123.252 4.47513H139.852C139.103 6.19799 138.518 8.00675 138.116 9.88262H123.252V4.47513Z" fill="#2E5790"/>
</svg>
