<?xml version="1.0" encoding="UTF-8" standalone="no"?>
<!-- Created with Inkscape (http://www.inkscape.org/) -->
<svg
   xmlns:svg="http://www.w3.org/2000/svg"
   xmlns="http://www.w3.org/2000/svg"
   version="1.0"
   width="800"
   height="219"
   viewBox="0 0 592.307 162.434"
   id="svg2"
   xml:space="preserve">
 <defs
   id="defs4">
  <style
   type="text/css"
   id="style6" />
 </defs>
<symbol
   viewBox="914.511 -1167.93 693.193 624.171"
   id="Fm0-958-0">
 <path
   d="M 1352.7,-677.257 C 1366.1664,-658.0751 1380.3621,-649.1494 1397.8713,-649.1494 L 1555.5443,-649.20765 C 1583.3623,-649.20765 1605.9069,-626.81315 1605.9069,-599.01485 C 1605.9069,-571.19685 1583.3623,-545.55285 1555.5443,-545.55285 L 1351.6233,-545.55285 C 1328.922,-545.55285 1314.6828,-565.44685 1314.6828,-565.44685 L 1271.8159,-615.80945 L 1334.7622,-698.71375 L 1352.6996,-677.25695 L 1352.7,-677.257 z "
   style="fill:none;fill-rule:nonzero;stroke:#ececed;stroke-width:3.59487009"
   id="path9" />
 <path
   d="M 1168.94,-1042.27 C 1155.8961,-1060.7374 1143.3157,-1061.1246 1126.3824,-1061.1246 L 967.5574,-1061.0467 C 940.7001,-1061.0467 918.925,-1090.6334 918.925,-1117.4522 C 918.925,-1144.3038 940.7001,-1166.0469 967.5574,-1166.0469 L 1171.0174,-1166.1256 C 1192.9484,-1166.1256 1206.6494,-1149.9274 1206.6494,-1149.9274 L 1251.4236,-1094.7164 L 1187.4182,-1019.6819 L 1168.9393,-1042.27 L 1168.94,-1042.27 z "
   style="fill:none;fill-rule:nonzero;stroke:#ececed;stroke-width:3.59487009"
   id="path11" />
 <path
   d="M 1225.04,-884.291 C 1225.04,-884.291 1211.1085,-871.5195 1211.4177,-855.6658 C 1211.7278,-842.6629 1227.1532,-826.9823 1227.1532,-826.9823 L 1250.5223,-800.2677 L 1186.8639,-717.1747 L 1133.4684,-782.2745 C 1133.4684,-782.2745 1117.23,-805.0718 1093.0643,-804.3597 L 966.6733,-804.2268 C 938.8184,-804.2268 916.3107,-828.3515 916.3107,-856.1292 C 916.3107,-883.9874 938.8184,-906.4951 966.6733,-906.4951 L 1093.0643,-906.68543 C 1093.0643,-906.68543 1105.6849,-906.68543 1113.9592,-912.07445 C 1125.0785,-919.30684 1133.4685,-930.69525 1133.4685,-930.69525 L 1184.3086,-991.77195 L 1272.2253,-1097.3919 L 1278.52,-1104.9541 L 1313.805,-1146.6175 C 1313.805,-1146.6175 1331.3084,-1166.13 1350.3919,-1166.13 L 1557.4289,-1166.13 C 1585.2469,-1166.13 1605.9079,-1141.6977 1605.9079,-1113.9175 C 1605.9079,-1086.0593 1583.3633,-1061.1291 1555.5453,-1061.1291 L 1399.4093,-1061.1291 C 1369.9391,-1061.1291 1360.0905,-1047.1188 1360.0905,-1047.1188 L 1341.0735,-1024.1894 L 1251.9065,-916.68543 L 1225.0402,-884.29143 L 1225.04,-884.291 z "
   style="fill:none;fill-rule:nonzero;stroke:#ececed;stroke-width:3.59487009"
   id="path13" />
 <path
   d="M 964.287,-649.149 L 1124.999,-649.149 C 1150.6233,-649.149 1156.1649,-652.92271 1156.1649,-652.92271 L 1160.9378,-657.07297 L 1180.3363,-682.36997 L 1271.2228,-800.88897 L 1293.2555,-829.61837 C 1293.2555,-829.61837 1306.7211,-841.89277 1306.3773,-857.28297 C 1306.1074,-869.74767 1292.0602,-885.06317 1292.0602,-885.06317 L 1275.5494,-909.06147 L 1270.797,-915.96982 L 1333.1961,-991.49322 L 1337.5113,-985.8384 L 1381.635,-928.0375 C 1381.635,-928.0375 1398.6749,-905.9154 1422.0309,-906.6102 L 1558.7009,-906.6102 C 1585.477,-906.6102 1605.9067,-883.292 1605.9067,-856.4757 C 1605.9067,-829.6389 1584.1316,-804.2262 1557.3153,-804.2262 L 1420.6093,-804.2262 C 1420.6093,-804.2262 1407.2561,-804.8021 1399.2919,-799.6272 C 1388.5606,-792.64338 1381.635,-784.7949 1381.635,-784.7949 L 1337.8936,-727.9235 L 1249.7135,-613.2595 L 1241.6566,-602.7891 L 1207.5669,-562.5786 C 1207.5669,-562.5786 1192.5237,-545.5526 1174.0941,-545.5526 L 967.55709,-545.5526 C 940.69979,-545.5526 918.92469,-567.3105 918.92469,-594.1473 C 918.92469,-644.8397 964.28709,-649.1491 964.28709,-649.1491 L 964.287,-649.149 z "
   style="fill:none;fill-rule:nonzero;stroke:#ececed;stroke-width:3.59487009"
   id="path15" />
</symbol>
 <g
   id="Ebene_x0020_1">
  
  <g
   id="_24474456">
   <polygon
   points="592.307,162.434 592.307,0 0,0 0,162.434 592.307,162.434 "
   style="fill:#000000"
   id="_40515640" />
   <polygon
   points="58.2062,49.1156 61.8298,99.8294 75.9123,99.8294 86.3835,74.6046 86.3482,99.8294 100.425,99.8294 124.429,49.1156 109.55,49.1156 97.2821,79.3217 96.8916,49.1156 85.3843,49.1156 73.0352,79.3217 72.5463,49.1156 58.2062,49.1156 "
   style="fill:#e77817;fill-rule:nonzero"
   id="_40447896" />
   <polygon
   points="58.2062,49.1156 61.8298,99.8294 75.9123,99.8294 86.3835,74.6046 86.3482,99.8294 100.425,99.8294 124.429,49.1156 109.55,49.1156 97.2821,79.3217 96.8916,49.1156 85.3843,49.1156 73.0352,79.3217 72.5463,49.1156 58.2062,49.1156 "
   style="fill:none;fill-rule:nonzero;stroke:#e77817;stroke-width:0.62512302"
   id="_40537296" />
   <polygon
   points="177.506,51.3848 164.358,51.3848 162.428,60.623 175.582,60.623 177.506,51.3848 "
   style="fill:#e77817;fill-rule:nonzero"
   id="_40524360" />
   <polygon
   points="177.506,51.3848 164.358,51.3848 162.428,60.623 175.582,60.623 177.506,51.3848 "
   style="fill:none;fill-rule:nonzero;stroke:#e77817;stroke-width:0.62512302"
   id="_40518464" />
   <polygon
   points="154.276,99.8294 167.432,99.8294 174.661,64.1736 161.499,64.1736 154.276,99.8294 "
   style="fill:#e77817;fill-rule:nonzero"
   id="_40537232" />
   <polygon
   points="154.276,99.8294 167.432,99.8294 174.661,64.1736 161.499,64.1736 154.276,99.8294 "
   style="fill:none;fill-rule:nonzero;stroke:#e77817;stroke-width:0.62512302"
   id="_40537208" />
   <path
   d="M 138.306,89.1645 C 137.6374,90.35978 135.97697,91.62151 133.12043,91.62151 C 129.00217,91.62151 127.73387,88.56563 127.73387,84.91251 L 152.31627,84.91251 C 152.91596,82.78611 152.98487,80.79178 152.98487,78.93364 C 152.98487,68.10394 143.76143,63.42694 136.12127,63.42694 C 127.55167,63.42694 115.44547,69.03336 115.44547,84.84604 C 115.44547,93.21629 120.04447,100.34454 132.26637,100.34454 C 147.14787,100.34454 150.05937,91.49109 150.92737,89.16454 L 138.30597,89.16454 L 138.306,89.1645 z M 128.86599,78.0682 C 129.8611,74.41591 132.18849,72.28622 135.71281,72.28622 C 139.02957,72.28622 140.69411,74.34945 140.69411,76.93937 C 140.69411,77.272441 140.63012,77.735951 140.56121,78.0682 L 128.86601,78.0682 L 128.86599,78.0682 z "
   style="fill:#e77817"
   id="_42368160" />
   <path
   d="M 138.306,89.1645 C 137.6374,90.35978 135.97697,91.62151 133.12043,91.62151 C 129.00217,91.62151 127.73387,88.56563 127.73387,84.91251 L 152.31627,84.91251 C 152.91596,82.78611 152.98487,80.79178 152.98487,78.93364 C 152.98487,68.10394 143.76143,63.42694 136.12127,63.42694 C 127.55167,63.42694 115.44547,69.03336 115.44547,84.84604 C 115.44547,93.21629 120.04447,100.34454 132.26637,100.34454 C 147.14787,100.34454 150.05937,91.49109 150.92737,89.16454 L 138.30597,89.16454 L 138.306,89.1645 z M 128.86599,78.0682 C 129.8611,74.41591 132.18849,72.28622 135.71281,72.28622 C 139.02957,72.28622 140.69411,74.34945 140.69411,76.93937 C 140.69411,77.272441 140.63012,77.735951 140.56121,78.0682 L 128.86601,78.0682 L 128.86599,78.0682 z "
   style="fill:none;stroke:#e77817;stroke-width:0.62512302"
   id="_23394952" />
   <path
   d="M 207.214,49.1156 L 207.00234,49.969607 L 203.16464,68.781507 C 200.84709,65.044717 197.13081,63.852717 193.13724,63.852717 C 182.84244,63.852717 176.00134,72.954737 176.00134,86.038817 C 176.00134,90.225997 177.4977,100.34442 188.59654,100.34442 C 192.58108,100.34442 195.53934,98.532217 197.79372,95.276167 L 197.13086,99.829227 L 210.01806,99.829227 L 220.41056,49.115527 L 207.21406,49.115527 L 207.214,49.1156 z M 200.74865,79.4086 C 200.74865,83.52686 199.02341,90.1046 193.91003,90.1046 C 190.45134,90.1046 189.05917,87.58114 189.05917,84.4588 C 189.05917,79.47504 190.78441,73.0294 196.03069,73.0294 C 199.42293,73.0294 200.74865,75.55614 200.74865,79.40861 L 200.74865,79.4086 z "
   style="fill:#e77817"
   id="_40521216" />
   <path
   d="M 207.214,49.1156 L 207.00234,49.969607 L 203.16464,68.781507 C 200.84709,65.044717 197.13081,63.852717 193.13724,63.852717 C 182.84244,63.852717 176.00134,72.954737 176.00134,86.038817 C 176.00134,90.225997 177.4977,100.34442 188.59654,100.34442 C 192.58108,100.34442 195.53934,98.532217 197.79372,95.276167 L 197.13086,99.829227 L 210.01806,99.829227 L 220.41056,49.115527 L 207.21406,49.115527 L 207.214,49.1156 z M 200.74865,79.4086 C 200.74865,83.52686 199.02341,90.1046 193.91003,90.1046 C 190.45134,90.1046 189.05917,87.58114 189.05917,84.4588 C 189.05917,79.47504 190.78441,73.0294 196.03069,73.0294 C 199.42293,73.0294 200.74865,75.55614 200.74865,79.40861 L 200.74865,79.4086 z "
   style="fill:none;stroke:#e77817;stroke-width:0.62512302"
   id="_40521240" />
   <path
   d="M 217.106,99.8294 L 230.2623,99.8294 L 234.51346,79.4579 C 235.10987,76.46518 236.77112,74.33796 240.02718,74.33796 C 242.1544,74.33796 243.3464,75.336352 243.3464,77.53003 C 243.3464,78.459511 243.01907,79.85414 242.81398,80.71635 L 238.82862,99.82935 L 251.98492,99.82935 L 256.50024,78.32575 C 257.02938,75.80229 258.8908,74.33792 261.484,74.33792 C 263.60794,74.33792 264.87295,75.46921 264.87295,77.66042 C 264.87295,78.658812 264.20681,82.04449 264.07719,82.71309 L 260.55205,99.82929 L 273.71165,99.82929 L 277.89636,79.52099 C 278.1597,77.99346 278.69212,75.66935 278.69212,74.07454 C 278.69212,66.96356 274.48936,63.42694 267.77302,63.42694 C 263.19453,63.42694 259.22639,65.96845 256.37312,69.55676 C 255.50435,65.3056 251.70192,63.42694 247.18086,63.42694 C 242.79679,63.42694 238.89839,65.96845 236.23546,69.22368 L 236.10256,69.22368 L 237.08044,64.17347 L 224.32944,64.17347 L 217.10607,99.82927 L 217.106,99.8294 z "
   style="fill:#e77817;fill-rule:nonzero"
   id="_40521168" />
   <path
   d="M 217.106,99.8294 L 230.2623,99.8294 L 234.51346,79.4579 C 235.10987,76.46518 236.77112,74.33796 240.02718,74.33796 C 242.1544,74.33796 243.3464,75.336352 243.3464,77.53003 C 243.3464,78.459511 243.01907,79.85414 242.81398,80.71635 L 238.82862,99.82935 L 251.98492,99.82935 L 256.50024,78.32575 C 257.02938,75.80229 258.8908,74.33792 261.484,74.33792 C 263.60794,74.33792 264.87295,75.46921 264.87295,77.66042 C 264.87295,78.658812 264.20681,82.04449 264.07719,82.71309 L 260.55205,99.82929 L 273.71165,99.82929 L 277.89636,79.52099 C 278.1597,77.99346 278.69212,75.66935 278.69212,74.07454 C 278.69212,66.96356 274.48936,63.42694 267.77302,63.42694 C 263.19453,63.42694 259.22639,65.96845 256.37312,69.55676 C 255.50435,65.3056 251.70192,63.42694 247.18086,63.42694 C 242.79679,63.42694 238.89839,65.96845 236.23546,69.22368 L 236.10256,69.22368 L 237.08044,64.17347 L 224.32944,64.17347 L 217.10607,99.82927 L 217.106,99.8294 z "
   style="fill:none;fill-rule:nonzero;stroke:#e77817;stroke-width:0.62512302"
   id="_40521192" />
   <path
   d="M 322.986,64.1736 L 309.8297,64.1736 L 306.77956,78.7311 C 305.71718,83.11599 305.45384,89.5641 299.54142,89.5641 C 297.61683,89.5641 295.75623,88.43199 295.75623,86.30805 C 295.75623,86.30805 295.75623,84.5139 296.28537,82.71892 L 300.201,64.17362 L 287.0414,64.17362 C 283.05932,83.17672 281.86978,87.90282 281.86978,90.88902 C 281.86978,97.46758 286.54098,100.34462 292.52308,100.34462 C 296.97113,100.34462 301.06643,98.19935 303.91968,94.81039 L 304.0534,94.81039 L 302.99102,99.82942 L 315.74782,99.82942 L 322.98596,64.17362 L 322.986,64.1736 z "
   style="fill:#e77817;fill-rule:nonzero"
   id="_40521456" />
   <path
   d="M 322.986,64.1736 L 309.8297,64.1736 L 306.77956,78.7311 C 305.71718,83.11599 305.45384,89.5641 299.54142,89.5641 C 297.61683,89.5641 295.75623,88.43199 295.75623,86.30805 C 295.75623,86.30805 295.75623,84.5139 296.28537,82.71892 L 300.201,64.17362 L 287.0414,64.17362 C 283.05932,83.17672 281.86978,87.90282 281.86978,90.88902 C 281.86978,97.46758 286.54098,100.34462 292.52308,100.34462 C 296.97113,100.34462 301.06643,98.19935 303.91968,94.81039 L 304.0534,94.81039 L 302.99102,99.82942 L 315.74782,99.82942 L 322.98596,64.17362 L 322.986,64.1736 z "
   style="fill:none;fill-rule:nonzero;stroke:#e77817;stroke-width:0.62512302"
   id="_40522664" />
   <polygon
   points="291.909,60.4089 303.601,60.4089 305.469,51.5702 293.771,51.5702 291.909,60.4089 "
   style="fill:#e77817;fill-rule:nonzero"
   id="_42376512" />
   <polygon
   points="291.909,60.4089 303.601,60.4089 305.469,51.5702 293.771,51.5702 291.909,60.4089 "
   style="fill:none;fill-rule:nonzero;stroke:#e77817;stroke-width:0.62512302"
   id="_40523224" />
   <polygon
   points="308.172,60.4089 319.864,60.4089 321.722,51.5702 310.03,51.5702 308.172,60.4089 "
   style="fill:#e77817;fill-rule:nonzero"
   id="_40522784" />
   <polygon
   points="308.172,60.4089 319.864,60.4089 321.722,51.5702 310.03,51.5702 308.172,60.4089 "
   style="fill:none;fill-rule:nonzero;stroke:#e77817;stroke-width:0.62512302"
   id="_42377208" />
   <polygon
   points="333.101,48.9942 346.362,48.9942 335.874,99.8294 322.723,99.8294 333.101,48.9942 "
   style="fill:#e77817;fill-rule:nonzero"
   id="_42389096" />
   <polygon
   points="333.101,48.9942 346.362,48.9942 335.874,99.8294 322.723,99.8294 333.101,48.9942 "
   style="fill:none;fill-rule:nonzero;stroke:#e77817;stroke-width:0.62512302"
   id="_42390024" />
   <polygon
   points="353.62,48.9942 366.887,48.9942 356.552,99.8294 343.398,99.8294 353.62,48.9942 "
   style="fill:#e77817;fill-rule:nonzero"
   id="_42390336" />
   <polygon
   points="353.62,48.9942 366.887,48.9942 356.552,99.8294 343.398,99.8294 353.62,48.9942 "
   style="fill:none;fill-rule:nonzero;stroke:#e77817;stroke-width:0.62512302"
   id="_42379168" />
   <path
   d="M 388.066,89.254 C 387.40314,90.44682 385.74435,91.70855 382.8911,91.70855 C 378.76709,91.70855 377.50208,88.65513 377.50208,84.99709 L 402.08448,84.99709 C 402.68663,82.87561 402.75636,80.87883 402.75636,79.02068 C 402.75636,68.19098 393.51488,63.55178 385.87226,63.55178 C 377.29938,63.55178 365.21366,69.11964 365.21366,84.93308 C 365.21366,93.30251 369.82743,100.44878 382.05756,100.44878 C 396.93906,100.44878 399.83006,91.57482 400.68656,89.25398 L 388.06596,89.25398 L 388.066,89.254 z M 378.63419,78.1552 C 379.62684,74.50291 381.95587,72.37568 385.48101,72.37568 C 388.79777,72.37568 390.46231,74.43645 390.46231,77.02637 C 390.46231,77.359441 390.39258,77.82213 390.32859,78.1552 L 378.63419,78.1552 L 378.63419,78.1552 z "
   style="fill:#e77817"
   id="_42414704" />
   <path
   d="M 388.066,89.254 C 387.40314,90.44682 385.74435,91.70855 382.8911,91.70855 C 378.76709,91.70855 377.50208,88.65513 377.50208,84.99709 L 402.08448,84.99709 C 402.68663,82.87561 402.75636,80.87883 402.75636,79.02068 C 402.75636,68.19098 393.51488,63.55178 385.87226,63.55178 C 377.29938,63.55178 365.21366,69.11964 365.21366,84.93308 C 365.21366,93.30251 369.82743,100.44878 382.05756,100.44878 C 396.93906,100.44878 399.83006,91.57482 400.68656,89.25398 L 388.06596,89.25398 L 388.066,89.254 z M 378.63419,78.1552 C 379.62684,74.50291 381.95587,72.37568 385.48101,72.37568 C 388.79777,72.37568 390.46231,74.43645 390.46231,77.02637 C 390.46231,77.359441 390.39258,77.82213 390.32859,78.1552 L 378.63419,78.1552 L 378.63419,78.1552 z "
   style="fill:none;stroke:#e77817;stroke-width:0.62512302"
   id="_42416296" />
   <path
   d="M 404.012,99.8294 L 417.1683,99.8294 L 420.15773,84.8576 C 421.6828,77.61372 424.47617,75.22316 430.05551,75.22316 C 431.71676,75.22316 433.51091,75.489781 435.10326,76.088652 L 437.56027,63.803552 C 436.36745,63.40075 435.10326,63.267849 432.90958,63.267849 C 429.52637,63.267849 425.20793,65.858579 422.87808,69.513339 L 422.75092,70.172918 L 423.87647,64.130058 L 411.12217,64.130058 L 404.01201,99.829358 L 404.012,99.8294 z "
   style="fill:#e77817;fill-rule:nonzero"
   id="_42416216" />
   <path
   d="M 404.012,99.8294 L 417.1683,99.8294 L 420.15773,84.8576 C 421.6828,77.61372 424.47617,75.22316 430.05551,75.22316 C 431.71676,75.22316 433.51091,75.489781 435.10326,76.088652 L 437.56027,63.803552 C 436.36745,63.40075 435.10326,63.267849 432.90958,63.267849 C 429.52637,63.267849 425.20793,65.858579 422.87808,69.513339 L 422.75092,70.172918 L 423.87647,64.130058 L 411.12217,64.130058 L 404.01201,99.829358 L 404.012,99.8294 z "
   style="fill:none;fill-rule:nonzero;stroke:#e77817;stroke-width:0.62512302"
   id="_42415864" />
   <path
   d="M 469.864,48.9713 C 467.1256,48.9713 464.90896,46.7686 464.90896,44.0343 C 464.90896,41.29918 467.1256,38.77572 469.864,38.77572 L 489.9254,38.77572 C 492.16009,38.77572 493.558,40.73149 493.558,40.73149 L 499.28255,47.45772 L 492.88611,55.39892 L 489.81874,51.73186 C 488.4963,49.84501 487.09511,48.96557 485.37643,48.96557 L 469.86403,48.971313 L 469.864,48.9713 z "
   style="fill:#ffffff;fill-rule:nonzero"
   id="_42376728" />
   <path
   d="M 527.711,89.4943 C 530.35588,89.4943 532.49459,92.40252 532.49459,95.04247 C 532.49459,97.68161 530.35588,99.82359 527.711,99.82359 L 507.6956,99.829333 C 505.53638,99.829333 504.19097,98.234533 504.19097,98.234533 L 498.07838,90.704343 L 504.32633,83.275063 L 507.90069,87.641903 C 509.18293,89.462303 510.41841,89.503323 512.0854,89.503323 L 527.711,89.494299 L 527.711,89.4943 z "
   style="fill:#e77817;fill-rule:nonzero"
   id="_42385384" />
   <path
   d="M 527.711,89.4943 C 530.35588,89.4943 532.49459,92.40252 532.49459,95.04247 C 532.49459,97.68161 530.35588,99.82359 527.711,99.82359 L 507.6956,99.829333 C 505.53638,99.829333 504.19097,98.234533 504.19097,98.234533 L 498.07838,90.704343 L 504.32633,83.275063 L 507.90069,87.641903 C 509.18293,89.462303 510.41841,89.503323 512.0854,89.503323 L 527.711,89.494299 L 527.711,89.4943 z "
   style="fill:none;fill-rule:nonzero;stroke:#e77817;stroke-width:0.62512302"
   id="_42382144" />
   <path
   d="M 528.035,48.9655 L 512.2215,48.9655 C 509.69804,48.9655 509.15659,49.338769 509.15659,49.338769 L 508.68816,49.746494 L 495.66726,66.723294 C 495.66726,66.723294 494.34236,67.930064 494.37682,69.443644 C 494.40307,70.670924 495.78622,72.176304 495.78622,72.176304 L 499.67888,77.292964 L 493.54332,84.722244 L 486.97379,76.404494 C 486.97379,76.404494 485.29777,74.228044 482.99991,74.294494 L 469.55161,74.294494 C 466.9174,74.294494 464.90913,72.005654 464.90913,69.365704 C 464.90913,66.723284 467.04784,64.222794 469.68697,64.222794 L 483.13947,64.222794 C 483.13947,64.222794 484.45288,64.28104 485.23716,63.77159 C 486.29052,63.085759 486.97389,62.31297 486.97389,62.31297 L 500.74379,44.40427 L 504.09829,40.4509 C 504.09829,40.4509 505.57988,38.7757 507.39126,38.7757 L 527.71106,38.7757 C 530.35594,38.7757 532.49465,40.91441 532.49465,43.55682 C 532.49465,48.54304 528.03511,48.96553 528.03511,48.96553 L 528.035,48.9655 z "
   style="fill:#e77817;fill-rule:nonzero"
   id="_42382064" />
   <path
   d="M 528.035,48.9655 L 512.2215,48.9655 C 509.69804,48.9655 509.15659,49.338769 509.15659,49.338769 L 508.68816,49.746494 L 495.66726,66.723294 C 495.66726,66.723294 494.34236,67.930064 494.37682,69.443644 C 494.40307,70.670924 495.78622,72.176304 495.78622,72.176304 L 499.67888,77.292964 L 493.54332,84.722244 L 486.97379,76.404494 C 486.97379,76.404494 485.29777,74.228044 482.99991,74.294494 L 469.55161,74.294494 C 466.9174,74.294494 464.90913,72.005654 464.90913,69.365704 C 464.90913,66.723284 467.04784,64.222794 469.68697,64.222794 L 483.13947,64.222794 C 483.13947,64.222794 484.45288,64.28104 485.23716,63.77159 C 486.29052,63.085759 486.97389,62.31297 486.97389,62.31297 L 500.74379,44.40427 L 504.09829,40.4509 C 504.09829,40.4509 505.57988,38.7757 507.39126,38.7757 L 527.71106,38.7757 C 530.35594,38.7757 532.49465,40.91441 532.49465,43.55682 C 532.49465,48.54304 528.03511,48.96553 528.03511,48.96553 L 528.035,48.9655 z "
   style="fill:none;fill-rule:nonzero;stroke:#e77817;stroke-width:0.62512302"
   id="_42381920" />
   <path
   d="M 527.798,64.2228 C 530.53886,64.2228 532.7555,66.59942 532.7555,69.33125 C 532.7555,72.06883 530.53886,74.28547 527.798,74.28547 L 515.362,74.305979 C 515.362,74.305979 514.12324,74.305979 513.30697,74.835939 C 512.21588,75.548021 511.38812,76.667829 511.38812,76.667829 L 497.11772,93.811929 L 493.64755,97.910509 C 493.64755,97.910509 491.92231,99.829359 490.04694,99.829359 L 469.67544,99.829359 C 466.94114,99.829359 464.90908,97.427309 464.90908,94.692189 C 464.90908,91.954609 467.12572,89.503339 469.86412,89.503339 L 485.22312,89.503339 C 488.12231,89.503339 489.09199,88.122649 489.09199,88.122649 L 502.38199,72.100749 C 502.38199,72.100749 503.74791,70.844759 503.7192,69.281949 C 503.68967,68.005449 502.17034,66.463149 502.17034,66.463149 L 498.77564,62.581969 L 505.06789,54.356929 L 511.38803,62.064319 C 511.38803,62.064319 512.98611,64.307219 515.36191,64.237479 L 527.79791,64.222713 L 527.798,64.2228 z "
   style="fill:#ffffff;fill-rule:nonzero"
   id="_42465360" />
  </g>
 </g>
</svg>